<svg width="1000" height="600" xmlns="http://www.w3.org/2000/svg" xmlns:xlink="http://www.w3.org/1999/xlink" overflow="hidden">
<style>text{font-family:Calibri,sans-serif,Helvetica,arial;font-weight:400}</style>
<g>
<rect x="770" y="50" width="120" height="29" stroke="#7DCEA0" stroke-linejoin="round" stroke-miterlimit="10" fill="#A9DFBF" />
<a xlink:href="ms.cgi?pl=f&amp;peaks=119.0859:100,136.1124:77.34,120.0892:12.35,137.1161:8.38">
<text font-size="15" transform="translate(776 70)">Hide Peak Labels</text>
</a><path d="M100 40 900 40" stroke="#111" stroke-width="1" />
<path d="M900 40 900 500" stroke="#111" stroke-width="1" />
<path d="M900 500 100 500" stroke="#111" stroke-width="1" />
<path d="M100 40 100 500" stroke="#111" stroke-width="1" />
<path d="M94 500 100 500" stroke="#444" stroke-width="1" />
<path d="M94 320 100 320" stroke="#444" stroke-width="1" />
<path d="M94 140 100 140" stroke="#444" stroke-width="1" />
<path d="M100 500 100 506" stroke="#444" stroke-width="1" />
<path d="M300 500 300 506" stroke="#444" stroke-width="1" />
<path d="M500 500 500 506" stroke="#444" stroke-width="1" />
<path d="M700 500 700 506" stroke="#444" stroke-width="1" />
<path d="M900 500 900 506" stroke="#444" stroke-width="1" />
<text font-size="28" transform="matrix(0 -1 1 0 48 320)">Intensity</text>
<text font-style="italic" font-size="28" transform="translate(470 570)">m/z</text>
<text font-size="20" transform="translate(60 144)">100</text>
<text font-size="20" transform="translate(70 324)">50</text>
<text font-size="20" transform="translate(80 504)">0</text>
<text font-size="20" transform="translate(885 525)">200</text>
<text font-size="20" transform="translate(685 525)">150</text>
<text font-size="20" transform="translate(485 525)">100</text>
<text font-size="20" transform="translate(290 525)">50</text>
<text font-size="20" transform="translate(95 525)">0</text>
<text font-size="18" transform="matrix( 0.906249 -0.422744 0.422744 0.906249 576.344 140)">119.0859</text>
<path d="M576.344 140 576.344 500" stroke="#0000ff" stroke-width="1" />
<text font-size="18" transform="matrix( 0.906249 -0.422744 0.422744 0.906249 644.45 221.576)">136.1124</text>
<path d="M644.45 221.576 644.45 500" stroke="#0000ff" stroke-width="1" />
<text font-size="18" transform="matrix( 0.906249 -0.422744 0.422744 0.906249 580.357 455.54)">120.0892</text>
<path d="M580.357 455.54 580.357 500" stroke="#0000ff" stroke-width="1" />
<text font-size="18" transform="matrix( 0.906249 -0.422744 0.422744 0.906249 648.464 469.832)">137.1161</text>
<path d="M648.464 469.832 648.464 500" stroke="#0000ff" stroke-width="1" />
</g></svg>

